<?xml version="1.0" encoding="UTF-8" standalone="no"?>
<!DOCTYPE svg PUBLIC "-//W3C//DTD SVG 1.1//EN" "http://www.w3.org/Graphics/SVG/1.1/DTD/svg11.dtd">
<svg width="100%" height="100%" viewBox="0 0 981 135" version="1.1" xmlns="http://www.w3.org/2000/svg" xmlns:xlink="http://www.w3.org/1999/xlink" xml:space="preserve" xmlns:serif="http://www.serif.com/" style="fill-rule:evenodd;clip-rule:evenodd;stroke-linecap:round;stroke-linejoin:round;stroke-miterlimit:1.5;">
    <g transform="matrix(1,0,0,1,-21.9882,-316.642)">
        <g id="Homeventory-Logo" serif:id="Homeventory Logo" transform="matrix(1,0,0,1,-14.1276,-187.774)">
            <g transform="matrix(1.74198,0,0,1.74198,-169.367,371.464)">
                <path d="M209.321,129.871C204.585,129.871 200.243,128.771 196.297,126.57C192.35,124.37 189.217,121.296 186.896,117.35C184.576,113.403 183.416,108.966 183.416,104.039C183.416,99.111 184.576,94.686 186.896,90.763C189.217,86.841 192.35,83.779 196.297,81.578C200.243,79.378 204.585,78.278 209.321,78.278C214.057,78.278 218.398,79.378 222.345,81.578C226.291,83.779 229.401,86.841 231.673,90.763C233.945,94.686 235.082,99.111 235.082,104.039C235.082,108.966 233.933,113.403 231.637,117.35C229.341,121.296 226.232,124.37 222.309,126.57C218.386,128.771 214.057,129.871 209.321,129.871ZM209.321,118.677C213.339,118.677 216.556,117.338 218.972,114.659C221.388,111.98 222.596,108.44 222.596,104.039C222.596,99.59 221.388,96.038 218.972,93.383C216.556,90.728 213.339,89.4 209.321,89.4C205.254,89.4 202.013,90.716 199.597,93.347C197.182,95.978 195.974,99.542 195.974,104.039C195.974,108.488 197.182,112.04 199.597,114.695C202.013,117.35 205.254,118.677 209.321,118.677Z" style="fill-rule:nonzero;"/>
            </g>
            <g transform="matrix(1.74198,0,0,1.74198,-169.367,371.464)">
                <path d="M298.946,78.995L298.946,129.369L286.675,129.369L286.675,99.159L275.409,129.369L265.507,129.369L254.169,99.087L254.169,129.369L241.899,129.369L241.899,78.995L256.394,78.995L270.53,113.869L284.523,78.995L298.946,78.995Z" style="fill-rule:nonzero;"/>
            </g>
            <g transform="matrix(1.74198,0,0,1.74198,-169.367,371.464)">
                <path d="M320.043,88.826L320.043,99.016L336.475,99.016L336.475,108.488L320.043,108.488L320.043,119.538L338.628,119.538L338.628,129.369L307.772,129.369L307.772,78.995L338.628,78.995L338.628,88.826L320.043,88.826Z" style="fill-rule:nonzero;"/>
            </g>
            <g transform="matrix(1.74198,0,0,1.74198,-169.367,371.464)">
                <path d="M393.881,78.995L376.014,129.369L360.657,129.369L342.79,78.995L355.85,78.995L368.336,117.027L380.893,78.995L393.881,78.995Z" style="fill-rule:nonzero;"/>
            </g>
            <g transform="matrix(1.74198,0,0,1.74198,-169.367,371.464)">
                <path d="M411.247,88.826L411.247,99.016L427.679,99.016L427.679,108.488L411.247,108.488L411.247,119.538L429.832,119.538L429.832,129.369L398.976,129.369L398.976,78.995L429.832,78.995L429.832,88.826L411.247,88.826Z" style="fill-rule:nonzero;"/>
            </g>
            <g transform="matrix(1.74198,0,0,1.74198,-169.367,371.464)">
                <path d="M482.861,129.369L470.59,129.369L450.067,98.298L450.067,129.369L437.797,129.369L437.797,78.995L450.067,78.995L470.59,110.21L470.59,78.995L482.861,78.995L482.861,129.369Z" style="fill-rule:nonzero;"/>
            </g>
            <g transform="matrix(1.74198,0,0,1.74198,-169.367,371.464)">
                <path d="M527.996,78.995L527.996,88.826L514.649,88.826L514.649,129.369L502.379,129.369L502.379,88.826L489.032,88.826L489.032,78.995L527.996,78.995Z" style="fill-rule:nonzero;"/>
            </g>
            <g transform="matrix(1.74198,0,0,1.74198,-169.367,371.464)">
                <path d="M557.991,129.871C553.255,129.871 548.914,128.771 544.967,126.57C541.02,124.37 537.887,121.296 535.567,117.35C533.247,113.403 532.086,108.966 532.086,104.039C532.086,99.111 533.247,94.686 535.567,90.763C537.887,86.841 541.02,83.779 544.967,81.578C548.914,79.378 553.255,78.278 557.991,78.278C562.727,78.278 567.068,79.378 571.015,81.578C574.962,83.779 578.071,86.841 580.343,90.763C582.616,94.686 583.752,99.111 583.752,104.039C583.752,108.966 582.604,113.403 580.308,117.35C578.011,121.296 574.902,124.37 570.979,126.57C567.056,128.771 562.727,129.871 557.991,129.871ZM557.991,118.677C562.009,118.677 565.226,117.338 567.642,114.659C570.058,111.98 571.266,108.44 571.266,104.039C571.266,99.59 570.058,96.038 567.642,93.383C565.226,90.728 562.009,89.4 557.991,89.4C553.925,89.4 550.684,90.716 548.268,93.347C545.852,95.978 544.644,99.542 544.644,104.039C544.644,108.488 545.852,112.04 548.268,114.695C550.684,117.35 553.925,118.677 557.991,118.677Z" style="fill-rule:nonzero;"/>
            </g>
            <g transform="matrix(1.74198,0,0,1.74198,-169.367,371.464)">
                <path d="M616.258,129.369L605.781,110.353L602.839,110.353L602.839,129.369L590.569,129.369L590.569,78.995L611.163,78.995C615.134,78.995 618.518,79.689 621.317,81.076C624.116,82.463 626.209,84.365 627.596,86.781C628.983,89.197 629.677,91.888 629.677,94.854C629.677,98.202 628.732,101.192 626.842,103.823C624.953,106.454 622.166,108.32 618.483,109.42L630.107,129.369L616.258,129.369ZM602.839,101.671L610.446,101.671C612.694,101.671 614.38,101.12 615.505,100.02C616.629,98.92 617.191,97.365 617.191,95.356C617.191,93.442 616.629,91.935 615.505,90.835C614.38,89.735 612.694,89.185 610.446,89.185L602.839,89.185L602.839,101.671Z" style="fill-rule:nonzero;"/>
            </g>
            <g transform="matrix(1.74198,0,0,1.74198,-169.367,371.464)">
                <path d="M680.553,78.995L663.116,112.721L663.116,129.369L650.845,129.369L650.845,112.721L633.408,78.995L647.329,78.995L657.088,100.092L666.775,78.995L680.553,78.995Z" style="fill-rule:nonzero;"/>
            </g>
            <g transform="matrix(0.719633,0,0,0.719633,-234.442,343.582)">
                <path d="M518.1,223.495L518.1,347.037L448.1,410.695L448.545,409.695L462.7,371.302L463.5,281.962L430.566,281.962L431.224,371.302L447.524,409.695L448.1,410.695L375.966,347.037L375.966,223.495L430.566,223.495L430.566,260.162L463.5,260.162L463.5,223.495L518.1,223.495Z"/>
            </g>
            <g transform="matrix(0.719633,0,0,0.719633,-351.683,352.449)">
                <path d="M595.454,358.239L624.448,358.239" style="fill:none;stroke:black;stroke-width:2.89px;"/>
            </g>
        </g>
    </g>
</svg>
