<?xml version="1.0" encoding="UTF-8" standalone="no"?><!DOCTYPE svg PUBLIC "-//W3C//DTD SVG 1.1//EN" "http://www.w3.org/Graphics/SVG/1.1/DTD/svg11.dtd"><svg width="100%" height="100%" viewBox="0 0 4084 562" version="1.1" xmlns="http://www.w3.org/2000/svg" xmlns:xlink="http://www.w3.org/1999/xlink" xml:space="preserve" xmlns:serif="http://www.serif.com/" style="fill-rule:evenodd;clip-rule:evenodd;stroke-linecap:round;stroke-linejoin:round;stroke-miterlimit:1.5;"><g id="Homeventory-Logo" serif:id="Homeventory Logo"><path d="M663.119,388.667c-34.375,0 -65.885,-7.986 -94.531,-23.958c-28.646,-15.972 -51.389,-38.281 -68.229,-66.927c-16.84,-28.646 -25.261,-60.851 -25.261,-96.615c0,-35.764 8.421,-67.882 25.261,-96.354c16.84,-28.472 39.583,-50.694 68.229,-66.667c28.646,-15.972 60.156,-23.958 94.531,-23.958c34.375,0 65.886,7.986 94.532,23.958c28.645,15.973 51.215,38.195 67.708,66.667c16.493,28.472 24.739,60.59 24.739,96.354c0,35.764 -8.333,67.969 -25,96.615c-16.666,28.646 -39.236,50.955 -67.708,66.927c-28.472,15.972 -59.896,23.958 -94.271,23.958Zm0,-81.25c29.167,0 52.518,-9.722 70.052,-29.166c17.535,-19.445 26.302,-45.139 26.302,-77.084c0,-32.291 -8.767,-58.073 -26.302,-77.343c-17.534,-19.271 -40.885,-28.907 -70.052,-28.907c-29.514,0 -53.038,9.549 -70.573,28.646c-17.534,19.097 -26.302,44.965 -26.302,77.604c0,32.292 8.768,58.073 26.302,77.344c17.535,19.271 41.059,28.906 70.573,28.906Z" style="fill-rule:nonzero;"/><path d="M1313.64,19.396l0,365.625l-89.062,0l-0,-219.27l-81.771,219.27l-71.875,0l-82.292,-219.791l0,219.791l-89.062,0l-0,-365.625l105.208,0l102.604,253.125l101.563,-253.125l104.687,0Z" style="fill-rule:nonzero;"/><path d="M1466.77,90.751l0,73.958l119.271,-0l-0,68.75l-119.271,-0l0,80.208l134.896,0l-0,71.354l-223.958,0l-0,-365.625l223.958,0l-0,71.355l-134.896,-0Z" style="fill-rule:nonzero;"/><path d="M2002.7,19.396l-129.688,365.625l-111.458,0l-129.688,-365.625l94.792,0l90.625,276.042l91.146,-276.042l94.271,0Z" style="fill-rule:nonzero;"/><path d="M2128.74,90.751l0,73.958l119.271,-0l0,68.75l-119.271,-0l0,80.208l134.896,0l0,71.354l-223.958,0l-0,-365.625l223.958,0l0,71.355l-134.896,-0Z" style="fill-rule:nonzero;"/><path d="M2648.54,385.021l-89.063,0l-148.958,-225.52l0,225.52l-89.062,0l-0,-365.625l89.062,0l148.958,226.563l0,-226.563l89.063,0l-0,365.625Z" style="fill-rule:nonzero;"/><path d="M2976.14,19.396l0,71.355l-96.875,-0l0,294.27l-89.062,0l-0,-294.27l-96.875,-0l-0,-71.355l282.812,0Z" style="fill-rule:nonzero;"/><path d="M3193.85,388.667c-34.375,0 -65.885,-7.986 -94.531,-23.958c-28.646,-15.972 -51.389,-38.281 -68.229,-66.927c-16.84,-28.646 -25.26,-60.851 -25.26,-96.615c-0,-35.764 8.42,-67.882 25.26,-96.354c16.84,-28.472 39.583,-50.694 68.229,-66.667c28.646,-15.972 60.156,-23.958 94.531,-23.958c34.375,0 65.886,7.986 94.532,23.958c28.646,15.973 51.215,38.195 67.708,66.667c16.493,28.472 24.74,60.59 24.74,96.354c-0,35.764 -8.334,67.969 -25,96.615c-16.667,28.646 -39.237,50.955 -67.709,66.927c-28.472,15.972 -59.896,23.958 -94.271,23.958Zm0,-81.25c29.167,0 52.518,-9.722 70.053,-29.166c17.534,-19.445 26.302,-45.139 26.302,-77.084c-0,-32.291 -8.768,-58.073 -26.302,-77.343c-17.535,-19.271 -40.886,-28.907 -70.053,-28.907c-29.513,0 -53.038,9.549 -70.572,28.646c-17.535,19.097 -26.303,44.965 -26.303,77.604c0,32.292 8.768,58.073 26.303,77.344c17.534,19.271 41.059,28.906 70.572,28.906Z" style="fill-rule:nonzero;"/><path d="M3616.76,385.021l-76.042,-138.02l-21.354,-0l0,138.02l-89.062,0l-0,-365.625l149.479,0c28.819,0 53.385,5.035 73.698,15.105c20.312,10.069 35.503,23.871 45.573,41.406c10.069,17.535 15.104,37.066 15.104,58.594c-0,24.305 -6.858,46.007 -20.573,65.104c-13.715,19.097 -33.941,32.639 -60.677,40.625l84.375,144.791l-100.521,0Zm-97.396,-201.041l55.209,-0c16.319,-0 28.559,-3.993 36.718,-11.979c8.16,-7.986 12.24,-19.271 12.24,-33.855c-0,-13.888 -4.08,-24.826 -12.24,-32.812c-8.159,-7.986 -20.399,-11.979 -36.718,-11.979l-55.209,-0l0,90.625Z" style="fill-rule:nonzero;"/><path d="M4083.43,19.396l-126.563,244.792l0,120.833l-89.062,0l-0,-120.833l-126.563,-244.792l101.042,0l70.833,153.125l70.313,-153.125l100,0Z" style="fill-rule:nonzero;"/><path d="M426.183,0l-0,370.438l-209.893,190.876l1.336,-2.999l42.442,-115.12l2.398,-267.884l-98.749,-0l1.97,267.884l48.875,115.12l1.728,2.999l-216.29,-190.876l-0,-370.438l163.717,0l-0,109.944l98.749,-0l0,-109.944l163.717,0Z"/><path d="M169.623,440.97l86.937,0" style="fill:none;stroke:#000;stroke-width:8.68px;"/></g></svg>