<?xml version="1.0" encoding="UTF-8" standalone="no"?><!DOCTYPE svg PUBLIC "-//W3C//DTD SVG 1.1//EN" "http://www.w3.org/Graphics/SVG/1.1/DTD/svg11.dtd"><svg width="100%" height="100%" viewBox="0 0 981 135" version="1.1" xmlns="http://www.w3.org/2000/svg" xmlns:xlink="http://www.w3.org/1999/xlink" xml:space="preserve" xmlns:serif="http://www.serif.com/" style="fill-rule:evenodd;clip-rule:evenodd;stroke-linecap:round;stroke-linejoin:round;stroke-miterlimit:1.5;"><g id="Homeventory-Logo" serif:id="Homeventory Logo"><path d="M159.149,93.28c-8.25,0 -15.813,-1.917 -22.688,-5.75c-6.875,-3.833 -12.333,-9.187 -16.375,-16.062c-4.042,-6.875 -6.062,-14.605 -6.062,-23.188c-0,-8.583 2.02,-16.292 6.062,-23.125c4.042,-6.833 9.5,-12.167 16.375,-16c6.875,-3.833 14.438,-5.75 22.688,-5.75c8.25,0 15.812,1.917 22.687,5.75c6.875,3.833 12.292,9.167 16.25,16c3.958,6.833 5.938,14.542 5.938,23.125c-0,8.583 -2,16.313 -6,23.188c-4,6.875 -9.417,12.229 -16.25,16.062c-6.834,3.833 -14.375,5.75 -22.625,5.75Zm-0,-19.5c7,0 12.604,-2.333 16.812,-7c4.208,-4.667 6.313,-10.833 6.313,-18.5c-0,-7.75 -2.105,-13.937 -6.313,-18.562c-4.208,-4.625 -9.812,-6.938 -16.812,-6.938c-7.084,0 -12.73,2.292 -16.938,6.875c-4.208,4.583 -6.312,10.792 -6.312,18.625c-0,7.75 2.104,13.938 6.312,18.563c4.208,4.625 9.854,6.937 16.938,6.937Z" style="fill-rule:nonzero;"/><path d="M315.274,4.655l-0,87.75l-21.375,0l-0,-52.625l-19.625,52.625l-17.25,0l-19.75,-52.75l-0,52.75l-21.375,0l-0,-87.75l25.25,0l24.625,60.75l24.375,-60.75l25.125,0Z" style="fill-rule:nonzero;"/><path d="M352.024,21.78l-0,17.75l28.625,0l-0,16.5l-28.625,0l-0,19.25l32.375,0l-0,17.125l-53.75,0l-0,-87.75l53.75,0l-0,17.125l-32.375,0Z" style="fill-rule:nonzero;"/><path d="M480.649,4.655l-31.125,87.75l-26.75,0l-31.125,-87.75l22.75,0l21.75,66.25l21.875,-66.25l22.625,0Z" style="fill-rule:nonzero;"/><path d="M510.899,21.78l-0,17.75l28.625,0l-0,16.5l-28.625,0l-0,19.25l32.375,0l-0,17.125l-53.75,0l-0,-87.75l53.75,0l-0,17.125l-32.375,0Z" style="fill-rule:nonzero;"/><path d="M635.649,92.405l-21.375,0l-35.75,-54.125l-0,54.125l-21.375,0l-0,-87.75l21.375,0l35.75,54.375l-0,-54.375l21.375,0l-0,87.75Z" style="fill-rule:nonzero;"/><path d="M714.274,4.655l-0,17.125l-23.25,0l-0,70.625l-21.375,0l-0,-70.625l-23.25,0l-0,-17.125l67.875,0Z" style="fill-rule:nonzero;"/><path d="M766.524,93.28c-8.25,0 -15.813,-1.917 -22.688,-5.75c-6.875,-3.833 -12.333,-9.187 -16.375,-16.062c-4.042,-6.875 -6.062,-14.605 -6.062,-23.188c-0,-8.583 2.02,-16.292 6.062,-23.125c4.042,-6.833 9.5,-12.167 16.375,-16c6.875,-3.833 14.438,-5.75 22.688,-5.75c8.25,0 15.812,1.917 22.687,5.75c6.875,3.833 12.292,9.167 16.25,16c3.958,6.833 5.938,14.542 5.938,23.125c-0,8.583 -2,16.313 -6,23.188c-4,6.875 -9.417,12.229 -16.25,16.062c-6.834,3.833 -14.375,5.75 -22.625,5.75Zm-0,-19.5c7,0 12.604,-2.333 16.812,-7c4.208,-4.667 6.313,-10.833 6.313,-18.5c-0,-7.75 -2.105,-13.937 -6.313,-18.562c-4.208,-4.625 -9.812,-6.938 -16.812,-6.938c-7.084,0 -12.73,2.292 -16.938,6.875c-4.208,4.583 -6.312,10.792 -6.312,18.625c-0,7.75 2.104,13.938 6.312,18.563c4.208,4.625 9.854,6.937 16.938,6.937Z" style="fill-rule:nonzero;"/><path d="M868.024,92.405l-18.25,-33.125l-5.125,0l-0,33.125l-21.375,0l-0,-87.75l35.875,0c6.916,0 12.812,1.208 17.687,3.625c4.875,2.417 8.521,5.729 10.938,9.938c2.416,4.208 3.625,8.895 3.625,14.062c-0,5.833 -1.646,11.042 -4.938,15.625c-3.292,4.583 -8.146,7.833 -14.562,9.75l20.25,34.75l-24.125,0Zm-23.375,-48.25l13.25,0c3.916,0 6.854,-0.958 8.812,-2.875c1.958,-1.917 2.938,-4.625 2.938,-8.125c-0,-3.333 -0.98,-5.958 -2.938,-7.875c-1.958,-1.917 -4.896,-2.875 -8.812,-2.875l-13.25,0l-0,21.75Z" style="fill-rule:nonzero;"/><path d="M980.024,4.655l-30.375,58.75l-0,29l-21.375,0l-0,-29l-30.375,-58.75l24.25,0l17,36.75l16.875,-36.75l24,0Z" style="fill-rule:nonzero;"/><path d="M102.284,0l-0,88.905l-50.374,45.81l0.32,-0.719l10.186,-27.629l0.576,-64.292l-23.7,-0l0.473,64.292l11.73,27.629l0.415,0.719l-51.91,-45.81l0,-88.905l39.292,0l-0,26.387l23.7,-0l-0,-26.387l39.292,0Z"/><path d="M40.71,105.833l20.864,-0" style="fill:none;stroke:#000;stroke-width:2.08px;"/></g></svg>